<?xml version="1.0" encoding="iso-8859-1"?>
<!-- Uploaded to: SVG Repo, www.svgrepo.com, Generator: SVG Repo Mixer Tools -->
<svg height="800px" width="800px" version="1.1" id="Layer_1" xmlns="http://www.w3.org/2000/svg" xmlns:xlink="http://www.w3.org/1999/xlink" 
	 viewBox="0 0 512 512" xml:space="preserve">
<path style="fill:#FFC477;" d="M192.689,444.527l-62.03-317.737c-2.524-12.931,2.043-26.229,11.978-34.88
	c9.935-8.651,23.735-11.347,36.196-7.067l308.266,105.862c12.46,4.279,21.692,14.881,24.218,27.814
	c2.524,12.931-2.043,26.229-11.978,34.88L253.526,467.432c-0.018,0.013-0.033,0.027-0.054,0.047
	c-15.363,13.377-38.656,11.766-52.032-3.595C196.501,458.213,193.605,451.464,192.689,444.527z"/>
<g>
	<path style="fill:#FFB655;" d="M277.076,446.927l135.743-118.194l-40.259-69.73c0,0,4.3-34.686-17.528-78.562l-25.269-43.766
		l-150.93-51.832c-12.461-4.281-26.26-1.585-36.196,7.067c-9.936,8.652-14.503,21.949-11.978,34.88l62.432,320.137L277.076,446.927
		L277.076,446.927z"/>
	<path style="fill:#FFB655;" d="M417.437,228.963c-2.059,0-4.075-0.836-5.538-2.288c-1.463-1.463-2.299-3.48-2.299-5.548
		c0-2.058,0.836-4.086,2.299-5.538c1.462-1.463,3.478-2.299,5.538-2.299c2.068,0,4.086,0.836,5.548,2.299
		c1.453,1.463,2.288,3.48,2.288,5.538c0,2.069-0.836,4.086-2.288,5.548C421.522,228.127,419.505,228.963,417.437,228.963z"/>
	<path style="fill:#FFB655;" d="M465.502,236.8c-2.06,0-4.075-0.836-5.538-2.288c-1.463-1.463-2.299-3.48-2.299-5.548
		c0-2.058,0.836-4.086,2.299-5.538c1.462-1.463,3.478-2.299,5.538-2.299c2.068,0,4.086,0.836,5.548,2.299
		c1.453,1.463,2.288,3.48,2.288,5.538c0,2.069-0.836,4.086-2.288,5.548C469.588,235.964,467.57,236.8,465.502,236.8z"/>
	<path style="fill:#FFB655;" d="M433.11,271.669c-2.06,0-4.075-0.836-5.538-2.288c-1.463-1.463-2.299-3.479-2.299-5.548
		c0-2.058,0.836-4.086,2.299-5.538c1.462-1.463,3.478-2.299,5.538-2.299c2.068,0,4.086,0.836,5.548,2.299
		c1.453,1.463,2.288,3.48,2.288,5.538c0,2.069-0.836,4.086-2.288,5.548C437.196,270.833,435.178,271.669,433.11,271.669z"/>
</g>
<path style="fill:#FFDAAA;" d="M6.112,358.356L167.979,77.992c6.587-11.409,18.764-18.44,31.938-18.44s25.351,7.028,31.938,18.44
	l162.97,282.269c6.587,11.409,6.587,25.468,0,36.88c-6.587,11.409-18.764,18.439-31.938,18.439H36.952
	c-0.022-0.002-0.043-0.002-0.072,0C16.509,415.581,0,399.069,0,378.701C0,371.181,2.248,364.189,6.112,358.356z"/>
<g>
	<path style="fill:#FFC477;" d="M320.987,326.835c-2.06,0-4.075-0.836-5.538-2.288c-1.463-1.463-2.299-3.479-2.299-5.548
		c0-2.058,0.836-4.086,2.299-5.538c1.462-1.463,3.478-2.299,5.538-2.299c2.068,0,4.086,0.836,5.548,2.299
		c1.453,1.463,2.288,3.479,2.288,5.538c0,2.069-0.836,4.086-2.288,5.548C325.073,325.998,323.055,326.835,320.987,326.835z"/>
	<path style="fill:#FFC477;" d="M77.636,393.9c-2.059,0-4.075-0.836-5.538-2.288c-1.463-1.463-2.299-3.479-2.299-5.548
		c0-2.058,0.836-4.086,2.299-5.538c1.462-1.463,3.478-2.299,5.538-2.299c2.068,0,4.086,0.836,5.548,2.299
		c1.453,1.463,2.288,3.479,2.288,5.538c0,2.069-0.836,4.086-2.288,5.548C81.721,393.064,79.704,393.9,77.636,393.9z"/>
	<path style="fill:#FFC477;" d="M122.137,360.542c-2.059,0-4.075-0.836-5.538-2.288c-1.463-1.463-2.299-3.479-2.299-5.548
		c0-2.058,0.836-4.086,2.299-5.538c1.462-1.463,3.478-2.299,5.538-2.299c2.068,0,4.086,0.836,5.548,2.299
		c1.453,1.463,2.288,3.479,2.288,5.538c0,2.069-0.836,4.086-2.288,5.548C126.223,359.706,124.206,360.542,122.137,360.542z"/>
	<circle style="fill:#FFC477;" cx="268.298" cy="327.837" r="16.679"/>
	<circle style="fill:#FFC477;" cx="320.982" cy="369.382" r="16.679"/>
</g>
<path style="fill:#A4E276;" d="M252.728,65.943c-10.856-18.807-31.094-30.49-52.811-30.49s-41.953,11.683-52.809,30.489
	L52.485,230.246c0,0-11.73,20.67-11.73,45.373v38.834c0,16.525,13.521,30.046,30.046,30.046c0,0,30.046,1.916,30.046-30.046v-26.954
	c0-16.525,13.521-30.046,30.046-30.046c16.524,0,30.044,13.519,30.046,30.043v101.313c0,30.046,30.046,30.046,30.046,30.046
	c16.525,0,30.046-13.521,30.046-30.046V246.047c0-16.525,13.521-30.046,30.046-30.046c28.877,0,30.046,28.95,30.046,28.95v15.333
	c0,16.525,13.521,30.046,30.046,30.046c16.525,0,30.046-13.521,30.046-30.046v-12.079c-0.195-29.197-13.381-52.178-13.403-52.218
	L252.728,65.943z"/>
<g>
	<path style="fill:#7ED63E;" d="M78.372,299.719c0-24.703,11.73-45.373,11.73-45.373l94.623-164.304
		c24.952-37.785,60.763-30.09,64.615-29.324c-11.378-15.72-29.794-25.265-49.423-25.265c-21.717,0-41.953,11.683-52.809,30.489
		L52.485,230.245c0,0-11.73,20.67-11.73,45.373v38.834c0,16.525,13.521,30.046,30.046,30.046c0,0,3.463,0.217,8.034-0.74
		C78.537,342.065,78.372,299.719,78.372,299.719z"/>
	<path style="fill:#7ED63E;" d="M250.168,139.876l-17.437-30.201c-2.164-3.748-0.88-8.541,2.868-10.705
		c3.746-2.163,8.541-0.881,10.705,2.868l17.437,30.201c2.164,3.748,0.952,8.672-2.868,10.705
		C255.997,145.34,251.621,142.39,250.168,139.876z"/>
	<path style="fill:#7ED63E;" d="M262.251,160.802l-1.473-2.552c-2.164-3.748-0.88-8.541,2.868-10.705
		c3.747-2.163,8.54-0.881,10.705,2.868l1.473,2.552c2.164,3.748,0.922,8.615-2.868,10.705
		C268.301,166.238,263.703,163.316,262.251,160.802z"/>
</g>
</svg>